<svg xmlns="http://www.w3.org/2000/svg" width="960" height="540" viewBox="0 0 960 540"><defs></defs><g fill="#e991ff" opacity=".15"><rect x="0" y="0" width="70" height="3"/><rect x="179" y="73" width="111" height="10"/><rect x="358" y="146" width="152" height="17"/><rect x="537" y="219" width="193" height="24"/><rect x="16" y="292" width="234" height="9"/><rect x="195" y="365" width="275" height="16"/><rect x="374" y="438" width="316" height="23"/><rect x="553" y="11" width="77" height="8"/><rect x="32" y="84" width="118" height="15"/><rect x="211" y="157" width="159" height="22"/><rect x="390" y="230" width="200" height="7"/><rect x="569" y="303" width="241" height="14"/><rect x="48" y="376" width="282" height="21"/></g><path d="M0 120h960M0 390h960" stroke="#ff75bd" opacity=".45" stroke-width="3"/></svg>
